<?xml version="1.0" encoding="utf-8"?>
<svg width="60" height="60" viewBox="0 0 60 60" fill="none" xmlns="http://www.w3.org/2000/svg">
  <defs>
    <linearGradient id="gradient_1" gradientUnits="userSpaceOnUse" x1="0" y1="60" x2="60" y2="0">
      <stop offset="0" stop-color="#FF4400" />
      <stop offset="1" stop-color="#FFA34E" />
    </linearGradient>
  </defs>
  <g>
    <rect width="60" height="60" fill="url(#gradient_1)" fill-rule="evenodd" />
    <g transform="translate(12 12)">
      <path d="M31.9531 0.0489455C30.8051 -0.0280545 26.0841 -0.701054 14.4311 6.71395C2.77909 14.1289 -3.35491 26.6089 1.89509 33.3289C2.99909 34.7419 7.41308 37.6119 12.5771 33.8589C15.8241 31.4999 16.8191 26.3389 19.7271 19.4249C21.7131 14.7019 26.1711 5.83094 32.3951 1.81394C34.3371 0.843943 32.6151 0.0939428 31.9531 0.0489428C31.9531 0.0489428 31.9531 0.0489455 31.9531 0.0489455Z" fill="#000000" fill-rule="evenodd" fill-opacity="0.804" transform="translate(1.709 0)" />
      <path d="M5.297 0C2.372 0 0 2.371 0 5.297C0 8.222 2.372 10.593 5.297 10.593C8.222 10.593 10.593 8.222 10.593 5.297C10.593 2.371 8.222 1.90735e-06 5.297 1.90735e-06C5.297 1.90735e-06 5.297 0 5.297 0Z" fill="#F5F8FA" fill-rule="evenodd" transform="translate(3.428 23.663)" />
    </g>
  </g>
</svg>